<svg width="512" height="512" viewBox="0 0 512 512" fill="none" xmlns="http://www.w3.org/2000/svg">
<path d="M378.817 1.43965C389.015 -1.3322 397.513 9.54809 392.353 18.7707L363.176 70.9244C427.385 108.029 470.591 177.427 470.591 256.917L470.587 258.305C469.927 362.496 395.038 449.075 296.145 467.819L133.806 511.329C123.618 514.059 115.161 503.193 120.31 493.988L148.829 442.998C84.9106 406.13 41.7662 337.277 41.266 258.305L41.2617 256.917C41.2617 152.627 115.632 65.7064 214.232 46.2982C214.753 46.0807 215.303 45.8914 215.883 45.7338L378.817 1.43965ZM255.927 86.9739C162.07 86.9739 85.9835 163.06 85.9835 256.917C85.9836 350.774 162.07 426.86 255.927 426.86C349.783 426.86 425.869 350.774 425.87 256.917C425.87 163.06 349.783 86.974 255.927 86.9739Z" fill="#1263FF"/>
<path d="M320.919 157.99C366.708 157.99 400.55 202.549 400.55 253.046C400.55 303.544 366.708 348.103 320.919 348.103C294.04 348.102 271.279 332.747 257.064 309.85C242.876 333.095 219.945 348.733 192.82 348.734C147.032 348.733 113.191 304.174 113.191 253.677C113.191 203.18 147.031 158.621 192.82 158.621C219.699 158.621 242.46 173.975 256.676 196.871C270.864 173.627 293.795 157.99 320.919 157.99ZM192.82 178.947C175.816 178.947 159.59 188.448 148.423 204.19C154.322 200.863 160.891 199.004 167.817 199.004C188.643 199.004 206.238 215.829 212.072 238.92L183.34 252.177V252.226L213.711 262.879C210.77 290.694 191.391 312.195 167.817 312.196C162.783 312.196 157.938 311.214 153.401 309.401C164.151 321.38 178.197 328.406 192.82 328.407C215.299 328.406 236.416 311.803 246.286 286.129C243.041 275.712 241.29 264.533 241.29 253.046C241.29 241.819 242.964 230.885 246.069 220.669C236.11 195.311 215.137 178.947 192.82 178.947ZM320.919 178.316C303.352 178.316 286.616 188.456 275.431 205.142C281.734 201.218 288.872 199.004 296.434 199.004C317.26 199.004 334.855 215.829 340.688 238.92L311.957 252.177V252.226L342.328 262.879C339.387 290.694 320.007 312.196 296.434 312.196C291.434 312.196 286.619 311.227 282.109 309.438C292.777 321.009 306.57 327.775 320.919 327.776C351.861 327.776 380.224 296.319 380.224 253.046C380.224 209.773 351.861 178.316 320.919 178.316Z" fill="#1263FF"/>
</svg>
