<svg width="160" height="160" viewBox="0 0 160 160" fill="none" xmlns="http://www.w3.org/2000/svg">
<path d="M139.535 37.9512L145.505 35.3912L141.24 26.8662L134.425 30.2762L139.535 37.9512Z" fill="white"/>
<path d="M139.069 22.5293C140.22 21.9537 141.552 21.8582 142.773 22.2647C143.993 22.6712 145.002 23.5459 145.577 24.6963L149.842 33.2217C150.439 34.4163 150.519 35.8043 150.06 37.0586C149.6 38.313 148.644 39.3222 147.416 39.8487L141.446 42.4082C139.296 43.3302 136.795 42.586 135.498 40.6387L130.388 32.9639C129.617 31.8066 129.38 30.374 129.737 29.0303C130.094 27.6867 131.012 26.5606 132.255 25.9385L139.069 22.5293Z" fill="white"/>
<path d="M129.425 24.2061C132.895 23.3161 137.11 17.1611 138.495 14.1361L138.54 14.0211C139.005 12.7111 139.875 10.8111 139.555 9.67115C138.975 8.00115 133.565 7.76615 132.42 8.43615C130.645 9.41615 131.255 11.8411 130.94 13.5711C130.5 18.0661 127.615 24.2111 129.42 24.2161L129.425 24.2061Z" fill="white"/>
<path d="M133.607 3.27303C134.6 3.20547 135.701 3.23454 136.763 3.35897C137.792 3.47946 139.026 3.71701 140.181 4.18612C141.035 4.53278 143.13 5.51043 144.051 7.8492L144.136 8.07967L144.224 8.36092C144.797 10.4033 144.228 12.3775 143.985 13.1832C143.715 14.0791 143.208 15.3664 143.11 15.6432C143.093 15.6917 143.075 15.7407 143.056 15.7887L143.011 15.9039C142.978 15.9885 142.943 16.0722 142.905 16.1549C142.02 18.0866 140.387 20.732 138.494 23.0445C137.535 24.2155 136.421 25.4098 135.205 26.4176C134.134 27.3048 132.726 28.2617 131.064 28.7789C130.541 28.9675 129.981 29.0676 129.406 29.066C128.592 29.0637 127.61 28.8822 126.654 28.3131C125.69 27.7391 125.049 26.9477 124.654 26.1949C123.961 24.8745 123.966 23.5735 123.987 23.0064C124.033 21.7426 124.389 20.3303 124.647 19.3463C125.297 16.8707 125.943 14.8378 126.113 13.0992L126.136 12.9C126.146 12.834 126.157 12.7683 126.169 12.7027C126.167 12.7114 126.174 12.6681 126.183 12.5435C126.192 12.4162 126.2 12.26 126.207 12.0289C126.218 11.6499 126.23 10.8954 126.314 10.1676C126.485 8.68634 127.107 5.8916 129.97 4.25155V4.25057C129.977 4.2467 129.984 4.24366 129.991 4.23983C130.019 4.22373 130.047 4.2059 130.076 4.19002L130.077 4.19295C130.844 3.76565 131.593 3.57451 132.033 3.48202C132.569 3.36911 133.111 3.30681 133.607 3.27303Z" fill="white"/>
<path d="M116.17 12.861L112.76 6.896L105.09 11.156L109.35 17.126L116.17 12.861Z" fill="white"/>
<path d="M110.624 2.54152C112.908 1.41932 115.694 2.25559 116.971 4.48879L120.381 10.4536C121.674 12.7143 120.949 15.5925 118.742 16.9732L111.922 21.2378C109.748 22.5973 106.892 22.0299 105.403 19.9429L101.142 13.9732C100.34 12.8489 100.055 11.4357 100.359 10.0884C100.663 8.74095 101.528 7.58723 102.736 6.91652L110.406 2.65578L110.624 2.54152Z" fill="white"/>
<path d="M28.44 45.4408C29.6 45.7358 30.91 46.0558 31.52 45.9008C32.315 45.7458 32.18 44.7758 32.145 44.0908C31.59 40.0408 33.245 35.2758 35.675 31.3308C38.41 25.4208 39.78 18.7908 40.6 12.5558C40.74 11.1108 39.39 10.5658 38.21 10.3008C36.785 10.0208 35.625 9.51081 34.785 10.0808L34.715 10.1508C34.4 10.4858 34.335 11.1208 34.28 11.8858C33.93 17.6558 32.52 23.4408 30.135 29.0108C29.56 30.3308 28.855 31.5308 28.185 32.7858C26.71 35.4658 26.065 39.2358 26.06 42.8108C26 44.3358 27.1 45.1508 28.445 45.4408H28.44Z" fill="white"/>
<path d="M32.0615 6.06745C34.0355 4.72799 36.0854 4.92995 37.041 5.0821C37.5473 5.16273 38.0326 5.28161 38.3369 5.35554C38.5171 5.39931 38.6624 5.4348 38.791 5.46491L39.1455 5.54206L39.2725 5.56843C40.0325 5.73911 41.4932 6.12027 42.8066 7.10358C44.4113 8.305 45.6858 10.3599 45.4277 13.0235C45.4224 13.0785 45.4154 13.1338 45.4082 13.1885C44.562 19.6227 43.1108 26.8107 40.0762 33.3682C39.9957 33.5421 39.9051 33.711 39.8047 33.8741C37.7127 37.2704 36.6794 40.753 36.9229 43.1993L36.9502 43.4327L36.9736 43.6378C36.9801 43.7062 36.9848 43.7752 36.9883 43.8438C36.9913 43.9037 36.9938 43.9347 37.002 44.0714C37.0084 44.1793 37.0177 44.3353 37.0225 44.5089C37.0311 44.8271 37.0334 45.3922 36.9199 46.0362C36.8077 46.6727 36.5297 47.696 35.7471 48.6758C34.9072 49.7273 33.7653 50.3769 32.5557 50.6368C31.1699 50.9457 29.8124 50.6996 29.3379 50.6153C28.5889 50.4822 27.8058 50.2845 27.2441 50.1417C27.2145 50.1341 27.1856 50.1243 27.1562 50.1163C25.9524 49.8207 24.5179 49.2258 23.3164 48.0382C21.9403 46.6778 21.1794 44.8365 21.2119 42.8038H21.21C21.2156 38.8126 21.9118 34.1244 23.9355 30.4473C24.7073 29.0043 25.2192 28.1495 25.6846 27.0831C27.8591 21.9989 29.1247 16.7648 29.4385 11.5919C29.4396 11.5739 29.4411 11.5561 29.4424 11.5382C29.4677 11.1865 29.514 10.5208 29.6543 9.85554C29.7855 9.23368 30.122 7.95513 31.1816 6.82819L31.2852 6.72175L31.3555 6.65144C31.5719 6.435 31.8082 6.23932 32.0615 6.06745Z" fill="white"/>
<path d="M20.6249 35.6559L17.2149 29.6909L9.54492 33.9509L13.8049 39.9209L20.6249 35.6559Z" fill="white"/>
<path d="M15.0789 25.3364C17.3622 24.2142 20.1489 25.0505 21.4256 27.2837L24.8357 33.2486C26.1281 35.5092 25.4039 38.3874 23.1961 39.7681L16.3768 44.0327C14.2029 45.3922 11.3465 44.8248 9.85722 42.7378L5.59648 36.7681C4.79428 35.6438 4.50928 34.2306 4.81328 32.8833C5.11745 31.5359 5.98264 30.3822 7.19023 29.7114L14.8602 25.4507L15.0789 25.3364Z" fill="white"/>
<path d="M11.19 58.701C13.895 60.646 20.6 63.911 24.055 62.966C25.625 62.071 20.08 58.156 17.47 54.466C16.34 53.121 15.67 50.711 13.645 50.736C12.32 50.721 7.73 53.601 8.055 55.341C8.335 56.491 10.035 57.716 11.085 58.621L11.185 58.701H11.19Z" fill="white"/>
<path d="M13.6986 45.8882C17.0033 45.8958 18.9271 48.0217 19.806 49.2222C20.238 49.8122 20.6217 50.4613 20.8187 50.7837C20.939 50.9807 21.0224 51.1128 21.0931 51.2183C21.1486 51.3011 21.1771 51.3387 21.183 51.3462C21.2694 51.4491 21.3515 51.5559 21.4291 51.6656C22.4404 53.0953 24.0099 54.5432 25.7992 56.3746C26.5102 57.1023 27.5172 58.155 28.182 59.232C28.4802 59.715 29.1288 60.8451 29.1771 62.3384C29.2047 63.1901 29.0358 64.1947 28.4789 65.1695C27.9268 66.1357 27.1618 66.7771 26.4564 67.1792C26.1033 67.3805 25.7264 67.5369 25.3343 67.6441C23.4887 68.1489 21.6142 68.0105 20.1263 67.7486C18.5704 67.4747 17.0114 66.9874 15.599 66.4439C12.8923 65.4024 10.2463 63.9666 8.51599 62.7496C8.39233 62.668 8.27111 62.581 8.15466 62.4878L8.05505 62.4087C8.00883 62.3718 7.96317 62.3331 7.91833 62.2945C7.69055 62.0982 6.62046 61.2365 5.93591 60.5845C5.32689 60.0045 3.84696 58.5617 3.34216 56.4888C3.32147 56.4039 3.30353 56.3179 3.28747 56.232C2.79988 53.6215 4.20567 51.6327 4.79528 50.8843C5.56739 49.9043 6.52354 49.0866 7.35778 48.4732C8.21969 47.8395 9.1627 47.2689 10.059 46.8365C10.5069 46.6203 11.0079 46.4071 11.5297 46.2398C11.9576 46.1026 12.7051 45.8969 13.5853 45.8892V45.8863C13.6111 45.886 13.6368 45.8873 13.6625 45.8873C13.6748 45.8873 13.6872 45.8861 13.6996 45.8863L13.6986 45.8882Z" fill="white"/>
<path d="M146.14 115.826C143.755 110.256 142.345 104.471 141.995 98.7012C141.94 97.9312 141.875 97.3012 141.56 96.9662L141.49 96.8962C140.65 96.3262 139.49 96.8362 138.065 97.1162C136.885 97.3812 135.535 97.9262 135.675 99.3712C136.495 105.606 137.865 112.236 140.6 118.146C143.03 122.086 144.685 126.851 144.13 130.906C144.09 131.591 143.955 132.561 144.755 132.716C145.365 132.871 146.675 132.551 147.835 132.256C149.18 131.966 150.28 131.151 150.22 129.626C150.22 126.056 149.57 122.281 148.095 119.601C147.43 118.346 146.725 117.151 146.145 115.826H146.14Z" fill="white"/>
<path d="M139.235 91.8975C140.16 91.7501 142.113 91.556 144.028 92.7618L144.213 92.8829L144.401 93.0167C144.584 93.1543 144.758 93.3046 144.92 93.4669L144.989 93.5372C145.024 93.5723 145.06 93.6075 145.094 93.6436C146.15 94.7664 146.487 96.0384 146.62 96.6671C146.691 97.0005 146.737 97.3345 146.77 97.629L146.833 98.3555L146.836 98.4073C147.148 103.554 148.404 108.761 150.559 113.821C150.568 113.842 150.579 113.861 150.588 113.882C151.072 114.986 151.582 115.823 152.381 117.33H152.38C154.374 120.995 155.07 125.654 155.07 129.626H155.069C155.1 131.656 154.339 133.495 152.964 134.854C151.731 136.073 150.252 136.668 149.029 136.955L149.03 136.957C148.469 137.1 147.687 137.298 146.938 137.431C146.463 137.515 145.102 137.763 143.715 137.452C142.515 137.194 141.376 136.55 140.534 135.503C139.746 134.522 139.465 133.495 139.352 132.852C139.237 132.202 139.241 131.632 139.251 131.309C139.256 131.132 139.265 130.974 139.273 130.862C139.282 130.715 139.284 130.695 139.288 130.623C139.296 130.498 139.308 130.373 139.325 130.249C139.662 127.788 138.629 124.19 136.472 120.692C136.371 120.528 136.279 120.359 136.198 120.184C133.164 113.626 131.713 106.438 130.866 100.004C130.859 99.9492 130.853 99.8939 130.848 99.8389C130.59 97.1753 131.864 95.1204 133.469 93.919C134.782 92.9359 136.242 92.5546 137.002 92.3839L137.13 92.3575C137.357 92.3129 137.578 92.2585 137.939 92.171C138.243 92.097 138.728 91.9782 139.235 91.8975Z" fill="white"/>
<path d="M117.7 138.711L121.96 144.681L128.78 140.416L125.37 134.451L117.7 138.711Z" fill="white"/>
<path d="M123.234 130.097C125.517 128.974 128.304 129.811 129.581 132.044L132.991 138.009C134.283 140.269 133.559 143.148 131.351 144.528L124.532 148.793C122.358 150.152 119.502 149.585 118.012 147.498L113.752 141.528C112.95 140.404 112.665 138.991 112.969 137.644C113.273 136.296 114.138 135.142 115.346 134.472L123.015 130.211L123.234 130.097Z" fill="white"/>
<path d="M120.885 115.471V114.876C126.56 107.646 130.435 98.9408 131.855 89.4308C134.32 87.6358 137.18 85.7958 139.605 83.9458C147.35 78.2608 155.33 71.3058 149.39 68.2308C148.89 67.9708 148.29 67.6358 148.005 67.1958C147.42 66.4558 147.87 65.2258 147.4 64.5458C146.315 63.0508 143.865 64.8808 142.905 63.2508C141.475 59.4558 134.365 63.5458 130.535 66.3008C130.835 64.8208 131 63.2758 131 61.6858C131 51.5008 124.47 43.1808 116.25 42.6308C113.915 40.3308 111.375 38.2358 108.655 36.3858L115.065 37.2758C116.725 37.5058 118.255 36.3458 118.485 34.6858C118.715 33.0258 117.555 31.4958 115.895 31.2658L102.875 29.4608C101.435 29.2608 100.095 30.1058 99.6151 31.4158C96.9351 30.2608 94.1501 29.3158 91.2651 28.5958C91.6851 28.6208 92.1101 28.6508 92.5301 28.6808C92.5301 28.6808 106.355 15.3458 94.4701 13.6458C89.3501 12.9158 82.7901 14.8808 76.0051 18.0908C71.7801 17.0308 66.7701 16.7458 61.0051 18.0108C41.1201 22.3758 39.6651 42.7458 39.6651 42.7458C39.8451 42.6158 40.0251 42.4908 40.2051 42.3608C30.0401 52.2408 23.7251 66.0558 23.7251 81.3458C23.7251 102.351 35.6401 120.576 53.0801 129.626V130.246C53.1751 130.091 53.2701 129.931 53.3651 129.776C60.7801 133.571 69.1851 135.711 78.0901 135.711C95.3851 135.711 110.795 127.631 120.75 115.046C120.795 115.186 120.84 115.326 120.885 115.471Z" fill="white"/>
<path d="M75.4624 13.0025C81.9764 10.0795 89.0193 7.96948 95.1548 8.84427H95.1567C99.016 9.39629 102.811 11.269 103.884 15.5269C104.745 18.9411 103.273 22.2197 102.197 24.1568C102.114 24.305 102.029 24.4518 101.944 24.5982C102.467 24.5646 103.002 24.5817 103.542 24.6568H103.542L116.561 26.4615L116.96 26.5279C121.053 27.3076 123.869 31.1674 123.29 35.3511C123.103 36.6964 122.586 37.916 121.833 38.939C129.307 41.7837 134.409 49.3854 135.588 57.9048C135.709 57.8578 135.83 57.8104 135.951 57.7661C137.416 57.2292 139.413 56.6843 141.464 56.9214C142.563 57.0484 143.815 57.4157 144.97 58.2544C145.308 58.4994 145.613 58.77 145.891 59.0591C146.273 59.0606 146.709 59.083 147.148 59.1538C147.768 59.254 148.523 59.4606 149.295 59.8911C149.99 60.2782 150.605 60.7939 151.114 61.4214L151.326 61.6968L151.39 61.7886C152.076 62.7807 152.304 63.772 152.398 64.3697C153.372 64.9799 154.295 65.7803 155.01 66.8384C155.952 68.2306 156.348 69.7898 156.304 71.3238C156.224 74.1015 154.723 76.473 153.447 78.1011C150.766 81.5223 146.322 85.0321 142.475 87.856L142.474 87.855C141.182 88.8378 139.804 89.8 138.5 90.6997C137.737 91.2265 137.005 91.7294 136.303 92.2193C134.618 101.287 130.873 109.628 125.567 116.734C125.216 118.035 124.336 119.13 123.153 119.756C112.301 132.476 96.1381 140.561 78.0903 140.561C69.212 140.561 60.7787 138.603 53.2104 135.093C52.7308 135.106 52.2433 135.049 51.7632 134.914C50.6331 134.595 49.6929 133.89 49.0669 132.967C31.0556 122.823 18.8756 103.509 18.8755 81.3462C18.8755 65.6088 25.023 51.3002 35.0366 40.6978C35.1336 40.0779 35.2725 39.3086 35.4722 38.4253C35.9835 36.1633 36.9031 33.0852 38.5493 29.8277C41.8824 23.2323 48.2614 15.8431 59.9653 13.274C65.7396 12.0069 70.9261 12.1044 75.4624 13.0025ZM115.715 32.4693L115.731 32.4712C115.726 32.4705 115.72 32.4699 115.715 32.4693ZM28.5747 81.3462C28.5749 100.47 39.4182 117.072 55.314 125.321C55.3635 125.347 55.4111 125.376 55.4595 125.403C55.4978 125.421 55.5366 125.439 55.5747 125.459C62.3209 128.911 69.9706 130.861 78.0903 130.861C93.8394 130.861 107.871 123.509 116.946 112.037C116.966 112.012 116.987 111.988 117.007 111.963C117.028 111.936 117.049 111.908 117.07 111.881C122.239 105.296 125.765 97.3716 127.058 88.7144C127.25 87.4293 127.95 86.2751 129 85.5103C130.296 84.5667 131.697 83.6097 132.99 82.7173C134.315 81.8025 135.552 80.9376 136.664 80.0894L136.735 80.0357C140.633 77.1746 144.052 74.364 145.812 72.1177C145.882 72.0285 145.943 71.9422 146.001 71.8628C145.956 71.8325 145.908 71.8038 145.862 71.772C145.413 71.4625 144.671 70.8937 144.051 70.0054C143.745 69.5837 143.52 69.1594 143.353 68.7593C143.189 68.7372 143.021 68.711 142.853 68.6753C142.18 68.5326 141.391 68.2571 140.613 67.731C140.207 67.4567 139.845 67.1399 139.525 66.7915C139.451 66.8162 139.373 66.843 139.29 66.8736C137.469 67.541 135.153 68.9534 133.368 70.2378C131.748 71.403 129.579 71.4574 127.903 70.3745C126.227 69.2917 125.385 67.2929 125.782 65.3374C126.02 64.1623 126.15 62.94 126.15 61.6861C126.15 53.2081 120.834 47.7986 115.926 47.4702C114.767 47.3927 113.674 46.9017 112.846 46.0865C110.715 43.987 108.4 42.0782 105.927 40.396C104.064 39.1288 103.32 36.7457 104.129 34.6431C104.143 34.6075 104.157 34.5718 104.171 34.5367L103.411 34.4312C102.917 35.0525 102.275 35.5508 101.532 35.8706C100.307 36.3975 98.92 36.3972 97.6958 35.8697C95.2551 34.8178 92.7186 33.9572 90.0903 33.3013C87.6603 32.6946 86.0922 30.3376 86.4712 27.8618C86.7942 25.7531 88.4396 24.1495 90.4653 23.812C90.5862 23.6774 90.7153 23.5376 90.8452 23.3882C91.8599 22.2215 92.9684 20.7926 93.7173 19.4449C93.927 19.0675 94.0725 18.7573 94.1763 18.5103C94.06 18.4887 93.9295 18.4677 93.7837 18.4468V18.4458C90.1632 17.9304 84.7203 19.3334 78.0796 22.4751C77.0646 22.9553 75.9138 23.0687 74.8247 22.7954C71.3055 21.9125 67.0554 21.649 62.0444 22.7486L62.0435 22.7476C53.8633 24.5437 49.572 29.522 47.2065 34.2027C46.0036 36.5831 45.3169 38.8704 44.9341 40.564C44.9032 40.7008 44.875 40.8336 44.8481 40.9615C45.3552 42.6467 44.9216 44.5396 43.5854 45.8384C34.3206 54.8435 28.5747 67.4203 28.5747 81.3462Z" fill="white"/>
<path d="M77.6501 140.961C60.8151 140.961 47.1101 143.361 46.5701 146.356C46.5601 146.351 46.5501 146.341 46.5351 146.336C46.5201 146.331 46.5101 146.321 46.4951 146.316C46.1001 146.096 45.6051 145.886 45.0101 145.686C45.3851 144.366 39.5251 142.206 36.2201 139.536C34.7651 138.546 33.4701 136.411 31.5251 136.986C30.2451 137.331 26.6101 141.351 27.3951 142.936C27.5901 143.286 27.9501 143.596 28.3801 143.881C27.8201 143.881 27.2601 143.891 26.7101 143.901C26.6951 143.901 26.6751 143.901 26.6601 143.901C26.1151 143.911 25.5801 143.931 25.0501 143.951L22.5901 140.756L15.0301 143.876L15.9951 144.876C15.7701 144.916 15.5551 144.961 15.3451 145.001C15.1351 145.046 14.9301 145.086 14.7301 145.131H14.7151C14.5201 145.176 14.3301 145.221 14.1501 145.266C14.1401 145.266 14.1301 145.266 14.1201 145.271C13.9451 145.316 13.7701 145.361 13.6051 145.406C13.5901 145.406 13.5801 145.411 13.5651 145.416C13.4051 145.461 13.2501 145.506 13.0951 145.551C13.0801 145.556 13.0601 145.561 13.0451 145.566C12.9001 145.611 12.7601 145.656 12.6251 145.701C12.6051 145.706 12.5851 145.716 12.5651 145.721C12.4351 145.766 12.3151 145.811 12.1951 145.856C12.1701 145.866 12.1451 145.876 12.1251 145.881C12.0151 145.926 11.9051 145.971 11.8051 146.016C11.7801 146.026 11.7551 146.036 11.7301 146.051C11.6351 146.096 11.5451 146.136 11.4551 146.181C11.4301 146.196 11.4001 146.206 11.3751 146.221C11.2951 146.261 11.2201 146.306 11.1451 146.346C11.1201 146.361 11.0901 146.376 11.0651 146.391C10.9951 146.431 10.9351 146.476 10.8751 146.516C10.8501 146.531 10.8251 146.551 10.8001 146.566C10.7451 146.606 10.6951 146.646 10.6501 146.691C10.6301 146.711 10.6051 146.731 10.5851 146.746C10.5401 146.786 10.5051 146.826 10.4701 146.866C10.4501 146.886 10.4301 146.906 10.4151 146.926C10.3801 146.966 10.3551 147.006 10.3301 147.051C10.3151 147.071 10.3001 147.091 10.2901 147.116C10.2651 147.161 10.2501 147.201 10.2351 147.246C10.2301 147.266 10.2201 147.286 10.2101 147.306C10.1951 147.371 10.1851 147.431 10.1851 147.496C10.1851 147.686 10.2601 147.871 10.4001 148.051C10.8251 148.591 11.8651 149.096 13.3751 149.531C13.7101 149.626 14.0701 149.721 14.4501 149.811C14.8301 149.901 15.2351 149.986 15.6551 150.071C17.1351 150.361 18.8601 150.601 20.7651 150.776C22.4001 150.931 24.1601 151.036 26.0151 151.091C26.9401 151.121 27.8901 151.131 28.8601 151.131C29.8301 151.131 30.7751 151.116 31.7051 151.091C33.5601 151.036 35.3251 150.926 36.9551 150.776C38.8601 150.596 40.5851 150.356 42.0651 150.071C42.4851 149.991 42.8901 149.901 43.2701 149.811C43.6501 149.721 44.0101 149.626 44.3451 149.531C45.8551 149.096 46.8951 148.591 47.3201 148.051C47.3701 147.986 47.4101 147.926 47.4451 147.861C50.7751 150.296 63.0351 152.106 77.6551 152.106C94.8351 152.106 108.765 149.611 108.765 146.531C108.765 143.451 94.8351 140.951 77.6551 140.951L77.6501 140.961Z" fill="white"/>
<path d="M30.2632 132.304C33.4421 131.416 35.8687 132.934 37.0444 133.854C37.6207 134.305 38.1658 134.826 38.4429 135.083C38.6122 135.239 38.7288 135.344 38.8257 135.426L38.9487 135.526L39.1108 135.641C39.1641 135.681 39.2165 135.722 39.2681 135.763C40.5204 136.775 42.3052 137.717 44.3882 138.899C45.0306 139.263 45.7901 139.702 46.4927 140.177C46.8293 140.018 47.1653 139.873 47.4937 139.743C49.5646 138.919 52.2264 138.269 55.1675 137.757C61.0379 136.736 68.8404 136.128 77.3286 136.113C77.4367 136.106 77.5454 136.101 77.6548 136.101C86.4414 136.101 94.5196 136.737 100.509 137.812C103.464 138.342 106.151 139.02 108.213 139.894C109.225 140.323 110.364 140.914 111.329 141.759C112.268 142.582 113.615 144.175 113.615 146.531C113.615 148.887 112.268 150.48 111.329 151.303C110.364 152.148 109.224 152.739 108.212 153.167C106.15 154.041 103.463 154.718 100.508 155.248C94.5189 156.321 86.4409 156.956 77.6548 156.956C70.1643 156.956 63.2102 156.493 57.6313 155.698C54.847 155.301 52.3277 154.81 50.2183 154.225C49.4183 154.003 48.6003 153.746 47.8062 153.445C47.1249 153.739 46.405 153.984 45.688 154.191C45.6816 154.193 45.6749 154.195 45.6685 154.197C45.2729 154.309 44.8441 154.423 44.3882 154.531C43.9635 154.631 43.484 154.738 42.9722 154.835L42.9712 154.834C41.3122 155.153 39.4339 155.413 37.4116 155.604L37.3999 155.606V155.605C35.6687 155.764 33.8032 155.881 31.8491 155.939H31.8354C30.8693 155.965 29.88 155.981 28.8599 155.981C27.8636 155.981 26.8622 155.97 25.8716 155.938V155.939C23.932 155.881 22.0709 155.77 20.3218 155.605V155.606C18.2877 155.419 16.395 155.158 14.7222 154.831C14.7124 154.829 14.7026 154.827 14.6929 154.825C14.2576 154.737 13.7908 154.639 13.3325 154.531C12.8767 154.423 12.4478 154.309 12.0522 154.197C12.0458 154.195 12.0391 154.193 12.0327 154.191C11.1077 153.924 10.1765 153.596 9.33154 153.178C8.57154 152.802 7.45494 152.151 6.58838 151.05C6.58278 151.043 6.57733 151.036 6.57178 151.029C5.96121 150.244 5.33545 149.039 5.33545 147.496C5.33548 146.915 5.42819 146.457 5.48389 146.215L5.55713 145.937C5.60725 145.767 5.66834 145.6 5.73682 145.436C5.78888 145.302 5.85675 145.14 5.94678 144.96C6.05065 144.75 6.1518 144.577 6.23584 144.447C6.24782 144.428 6.26066 144.411 6.27197 144.394C6.34867 144.274 6.44385 144.135 6.55908 143.986C6.70398 143.796 6.83265 143.653 6.90283 143.579C6.91378 143.567 6.92418 143.556 6.93408 143.545C7.03088 143.44 7.18166 143.282 7.36279 143.121L7.42627 143.067C7.63916 142.874 7.82644 142.731 7.94775 142.643C7.99524 142.609 8.04359 142.575 8.09229 142.542C8.10147 142.536 8.11279 142.529 8.12549 142.52C8.12003 142.524 8.11459 142.527 8.10986 142.53C8.11828 142.524 8.12681 142.519 8.13525 142.513C8.13771 142.512 8.14052 142.51 8.14307 142.508C8.15564 142.5 8.17015 142.49 8.18604 142.48H8.18506C8.16459 142.494 8.15134 142.503 8.16357 142.495C8.16719 142.492 8.20416 142.466 8.23877 142.443C8.30313 142.399 8.42079 142.322 8.5708 142.233L8.56982 142.232C8.59341 142.218 8.61604 142.206 8.63623 142.194C8.64376 142.189 8.65103 142.185 8.65869 142.18H8.65967C8.68458 142.166 8.70541 142.154 8.72119 142.145L8.65967 142.181C8.72639 142.141 8.79423 142.103 8.86279 142.067C8.85346 142.072 8.84777 142.075 8.84424 142.077L8.89697 142.047C8.92288 142.033 8.96652 142.01 9.021 141.981C9.05028 141.965 9.07737 141.949 9.10303 141.935C9.16674 141.901 9.22288 141.874 9.26611 141.853L9.28564 141.843C9.39182 141.79 9.48602 141.746 9.54346 141.719C9.61929 141.684 9.62474 141.681 9.65381 141.667H9.65479C9.69944 141.646 9.73986 141.626 9.77686 141.609C9.84345 141.579 9.8998 141.555 9.93701 141.54C9.96965 141.526 9.9988 141.515 10.0034 141.513C10.123 141.462 10.2272 141.417 10.2886 141.392L10.394 141.353L10.4917 141.315V141.316C10.4879 141.317 10.4844 141.319 10.481 141.32L10.394 141.353C10.4473 141.333 10.5003 141.312 10.5542 141.293C10.5299 141.302 10.509 141.31 10.4917 141.316V141.315C10.6053 141.272 10.7819 141.206 10.979 141.138L11.0435 141.117L11.0444 141.116C11.0295 141.121 11.0158 141.125 11.0034 141.129C11.0127 141.126 11.0224 141.122 11.0327 141.119C11.0368 141.117 11.0411 141.115 11.0454 141.114C11.5696 140.358 12.305 139.754 13.1802 139.393L20.7397 136.273C22.1155 135.705 23.6333 135.813 24.8843 136.484C25.5357 135.651 26.2782 134.858 27.0142 134.207C27.3867 133.877 27.812 133.536 28.269 133.233C28.6434 132.985 29.3058 132.584 30.1499 132.337V132.334C30.183 132.325 30.2165 132.316 30.2495 132.307C30.254 132.306 30.2587 132.304 30.2632 132.303V132.304ZM14.1255 150.043C14.1134 150.058 14.1026 150.073 14.0903 150.087L14.0913 150.086C14.1032 150.073 14.114 150.058 14.1255 150.044V150.043ZM14.2593 149.878C14.2161 149.935 14.1711 149.989 14.1255 150.043V150.044C14.1735 149.987 14.2189 149.932 14.2593 149.878ZM77.6499 145.811C72.1092 145.811 66.967 146.079 62.5952 146.533C66.9772 146.988 72.1222 147.256 77.6548 147.256C83.2176 147.256 88.378 146.985 92.7603 146.529C88.4388 146.078 83.3608 145.81 77.8862 145.802C77.8078 145.806 77.729 145.811 77.6499 145.811ZM33.1987 143.337C33.271 143.976 33.2179 144.636 33.0239 145.28C32.926 145.605 32.795 145.913 32.6372 146.203C33.9989 146.145 35.2974 146.057 36.5103 145.946C36.6916 145.929 36.8705 145.908 37.0474 145.89C35.8094 145.169 34.4597 144.325 33.3188 143.423C33.2786 143.395 33.2382 143.366 33.1987 143.337ZM5.63037 145.727C5.59665 145.829 5.56137 145.943 5.52979 146.07C5.55866 145.954 5.59308 145.84 5.63037 145.727ZM5.69385 145.55C5.68131 145.584 5.66801 145.619 5.65479 145.657C5.66554 145.625 5.67936 145.59 5.69385 145.55ZM5.78076 145.332C5.77782 145.338 5.77516 145.346 5.77197 145.353C5.77749 145.34 5.78393 145.328 5.78955 145.316L5.78857 145.315C5.78612 145.32 5.78323 145.326 5.78076 145.332ZM40.2749 144.643C40.2704 144.664 40.2654 144.684 40.2612 144.705C40.2655 144.684 40.2704 144.664 40.2749 144.643ZM8.07568 142.554C8.08348 142.549 8.09328 142.542 8.10498 142.534C8.10664 142.533 8.10809 142.531 8.10986 142.53C8.10385 142.534 8.09828 142.538 8.09229 142.542C8.08871 142.545 8.08547 142.547 8.08252 142.549C8.08026 142.551 8.07781 142.553 8.07568 142.554ZM8.18408 142.482C8.17042 142.491 8.15754 142.499 8.146 142.506C8.15945 142.498 8.17347 142.49 8.18701 142.481L8.18604 142.48L8.18408 142.482ZM49.2847 142.337C49.2927 142.343 49.3001 142.347 49.3013 142.348C49.2973 142.345 49.2856 142.337 49.271 142.328C49.2764 142.331 49.2808 142.335 49.2847 142.337ZM10.646 141.262C10.6419 141.264 10.6373 141.265 10.6333 141.266C10.7374 141.232 10.8425 141.202 10.9487 141.175C10.82 141.207 10.7159 141.24 10.646 141.262ZM10.9302 141.156L10.9155 141.161L11.0034 141.129C10.9727 141.14 10.9473 141.149 10.9302 141.156Z" fill="white"/>
<path d="M129.19 67.3205C132.35 64.7905 141.28 58.9555 142.905 63.2555C143.865 64.8855 146.315 63.0555 147.4 64.5505C147.875 65.2355 147.42 66.4605 148.005 67.2005C148.295 67.6405 148.89 67.9705 149.39 68.2355C155.33 71.3105 147.35 78.2655 139.605 83.9505C135.98 86.7155 131.365 89.4655 128.59 92.0655" fill="#CFFF5E"/>
<path d="M140.536 60.7505C141.213 60.7614 141.89 60.9022 142.483 61.2632C143.056 61.6123 143.488 62.1316 143.764 62.7964C143.839 62.9096 143.918 62.9563 144.062 62.9868C144.283 63.0337 144.572 63.0222 145.032 62.9868C145.429 62.9562 145.994 62.9024 146.53 62.9887C147.081 63.0777 147.653 63.3204 148.098 63.8676L148.185 63.9809L148.198 63.9975C148.435 64.3394 148.528 64.7086 148.573 65.0063C148.616 65.2948 148.623 65.601 148.631 65.8169C148.647 66.2164 148.676 66.4091 148.719 66.5161L148.766 66.5991L148.815 66.6665C148.861 66.7367 148.967 66.8454 149.169 66.9848C149.366 67.1202 149.595 67.2461 149.844 67.3784H149.843C150.684 67.815 151.348 68.355 151.796 69.0171C152.253 69.6918 152.448 70.4403 152.426 71.2163C152.383 72.7104 151.536 74.2532 150.393 75.7124C148.083 78.66 144.056 81.8849 140.193 84.7212C138.358 86.1209 136.265 87.5229 134.332 88.8667C132.376 90.2263 130.583 91.5271 129.253 92.7729C128.862 93.1392 128.248 93.1198 127.882 92.729C127.516 92.3381 127.536 91.7242 127.927 91.3579L128.49 90.8491C129.848 89.6605 131.517 88.4599 133.225 87.2729C135.199 85.9005 137.227 84.5444 139.017 83.1792L139.032 83.1684C142.909 80.3224 146.737 77.2322 148.866 74.5161C149.943 73.1415 150.462 72.013 150.487 71.1606C150.498 70.7637 150.403 70.4201 150.19 70.104C149.968 69.7768 149.585 69.4285 148.945 69.0971L148.936 69.0923C148.686 68.9596 148.367 68.7882 148.069 68.5825C147.784 68.3859 147.457 68.1177 147.215 67.7622C146.727 67.1141 146.708 66.3197 146.692 65.8921C146.681 65.6238 146.677 65.4491 146.654 65.2924C146.636 65.1726 146.613 65.1236 146.605 65.1089C146.52 64.997 146.42 64.936 146.22 64.9038C145.961 64.862 145.65 64.8842 145.18 64.9204C144.772 64.9518 144.2 64.9992 143.658 64.8842C143.052 64.7556 142.468 64.4238 142.07 63.7475C142.042 63.6999 142.017 63.6498 141.997 63.5981C141.864 63.2446 141.68 63.045 141.475 62.9204C141.256 62.7874 140.944 62.698 140.505 62.6909C139.601 62.6762 138.389 63.0138 137.012 63.6157C134.287 64.8072 131.338 66.8433 129.796 68.0776C129.378 68.4123 128.768 68.3444 128.433 67.9262C128.098 67.5081 128.166 66.8977 128.584 66.563C130.203 65.2673 133.299 63.1218 136.235 61.8383C137.688 61.2028 139.21 60.729 140.536 60.7505Z" fill="black"/>
<path d="M78.0901 135.716C108.115 135.716 132.455 111.376 132.455 81.3508C132.455 51.3259 108.115 26.9858 78.0901 26.9858C48.0651 26.9858 23.7251 51.3259 23.7251 81.3508C23.7251 111.376 48.0651 135.716 78.0901 135.716Z" fill="#CFFF5E"/>
<mask id="mask0_1226_1661" style="mask-type:luminance" maskUnits="userSpaceOnUse" x="23" y="26" width="110" height="110">
<path d="M78.0901 135.716C108.115 135.716 132.455 111.376 132.455 81.3508C132.455 51.3259 108.115 26.9858 78.0901 26.9858C48.0651 26.9858 23.7251 51.3259 23.7251 81.3508C23.7251 111.376 48.0651 135.716 78.0901 135.716Z" fill="white"/>
</mask>
<g mask="url(#mask0_1226_1661)">
<path d="M119.931 47.2778C112.287 70.2138 112.287 93.129 119.931 116.065L118.09 116.678C110.314 93.3442 110.314 69.9986 118.09 46.6646L119.931 47.2778Z" fill="white"/>
<path d="M53.9004 32.5728C64.5459 49.4231 69.4319 66.0521 69.1982 82.4556C68.9646 98.8546 63.6148 114.956 53.9062 130.759L52.2539 129.744C61.8203 114.172 67.0311 98.4079 67.2588 82.4282C67.4864 66.4531 62.7341 50.1894 52.2598 33.6099L53.9004 32.5728Z" fill="white"/>
</g>
<path d="M131.485 81.3511C131.485 51.8619 107.579 27.9557 78.0903 27.9556C48.6011 27.9556 24.6948 51.8618 24.6948 81.3511C24.695 110.84 48.6012 134.746 78.0903 134.746C107.579 134.745 131.485 110.84 131.485 81.3511ZM133.425 81.3511C133.425 111.912 108.651 136.686 78.0903 136.686C47.5297 136.686 22.7555 111.912 22.7554 81.3511C22.7554 50.7904 47.5297 26.0161 78.0903 26.0161C108.651 26.0162 133.425 50.7905 133.425 81.3511Z" fill="black"/>
<path d="M24.0033 81.5066C29.7144 102.829 52.6438 135.158 102.5 130C82.8614 141.528 25.3794 137.992 24.0033 81.5066Z" fill="black"/>
<path d="M34.7101 10.1507C34.3951 10.4857 34.3301 11.1207 34.2751 11.8857C33.9251 17.6557 32.5151 23.4407 30.1301 29.0107C29.5551 30.3307 28.8501 31.5307 28.1801 32.7857C26.7051 35.4657 26.0601 39.2357 26.0551 42.8107C25.9951 44.3357 27.0951 45.1507 28.4401 45.4407C29.6001 45.7357 30.9101 46.0557 31.5201 45.9007C32.3151 45.7457 32.1801 44.7757 32.1451 44.0957C31.5901 40.0457 33.2451 35.2807 35.6751 31.3357C38.4101 25.4257 39.7801 18.7957 40.6001 12.5607C40.7401 11.1157 39.3901 10.5707 38.2101 10.3057C36.7851 10.0257 35.6251 9.51569 34.7851 10.0857L34.7151 10.1557L34.7101 10.1507Z" fill="#E7FF00"/>
<path d="M34.9002 8.9707C35.4341 8.81112 35.9721 8.84597 36.4305 8.91895C36.761 8.97157 37.1021 9.05345 37.4207 9.13086C37.5858 9.17095 37.7474 9.2103 37.909 9.24805L38.3973 9.35352L38.4227 9.35938C39.0466 9.49951 39.8447 9.73733 40.4813 10.2139C41.1762 10.7342 41.6729 11.5436 41.5653 12.6543L41.5614 12.6875C40.7361 18.9622 39.3504 25.7038 36.5555 31.7432L36.5311 31.7949L36.5008 31.8447C34.1992 35.5814 32.6913 39.9508 33.0643 43.6123L33.1112 44.0049L33.1141 44.0459C33.1271 44.2983 33.1846 44.8752 33.0985 45.3633C33.0515 45.6294 32.9511 45.9604 32.7157 46.2549C32.4747 46.5562 32.1439 46.7534 31.7577 46.8398L31.7586 46.8408C31.7526 46.8424 31.7462 46.8423 31.7401 46.8438C31.7286 46.8462 31.7175 46.8503 31.7059 46.8525L31.7049 46.8506C31.1819 46.9674 30.5361 46.8873 30.0164 46.7949C29.4277 46.6903 28.7773 46.5274 28.201 46.3809C27.4234 46.2083 26.6369 45.8694 26.0389 45.2783C25.4145 44.6611 25.0542 43.824 25.0848 42.8096C25.0899 39.1515 25.7453 35.1978 27.3299 32.3184C28.022 31.0227 28.6881 29.8924 29.2411 28.623C31.5834 23.1509 32.9638 17.4769 33.3065 11.8271L33.3075 11.8164C33.3345 11.4401 33.3681 11.0263 33.4461 10.6562C33.5224 10.2951 33.6652 9.84555 34.0028 9.48633L34.6883 8.75781L34.9002 8.9707ZM36.1258 10.835C35.7224 10.7707 35.522 10.7996 35.4022 10.8516C35.3872 10.8887 35.3655 10.9536 35.3436 11.0576C35.2972 11.2777 35.2697 11.561 35.242 11.9434L35.243 11.9443C34.8858 17.8325 33.4474 23.7266 31.0213 29.3926L31.0194 29.3984C30.4239 30.7654 29.6818 32.0324 29.036 33.2422L29.0301 33.2539L29.0291 33.2529C27.6639 35.7335 27.0301 39.3208 27.0252 42.8125V42.8301L27.0243 42.8486C27.0048 43.3426 27.1629 43.6629 27.4022 43.8994C27.6335 44.1281 27.9854 44.3188 28.4422 44.4434L28.6444 44.4922L28.662 44.4961L28.6786 44.501C29.2622 44.6494 29.8476 44.7944 30.3563 44.8848C30.6093 44.9297 30.8249 44.9569 30.9989 44.9668C31.0788 44.9713 31.1432 44.9701 31.1932 44.9678C31.2013 44.8934 31.2074 44.7958 31.2039 44.6689C31.1995 44.5044 31.1888 44.3751 31.1786 44.1885C30.5985 39.8501 32.3556 34.8972 34.8133 30.8867C37.4719 25.1249 38.8214 18.6333 39.6346 12.4609C39.6651 12.1306 39.5568 11.9462 39.3182 11.7676C39.0203 11.5446 38.5548 11.3768 37.9998 11.252C37.6263 11.1778 37.271 11.0905 36.9627 11.0156C36.637 10.9365 36.3683 10.8736 36.1258 10.835Z" fill="black"/>
<path d="M141.56 96.9656C141.875 97.3006 141.94 97.9356 141.995 98.7006C142.345 104.471 143.755 110.256 146.14 115.826C146.715 117.146 147.42 118.346 148.09 119.601C149.565 122.281 150.21 126.051 150.215 129.626C150.275 131.151 149.175 131.966 147.83 132.256C146.67 132.551 145.36 132.871 144.75 132.716C143.955 132.561 144.09 131.591 144.125 130.911C144.68 126.861 143.025 122.096 140.595 118.151C137.86 112.241 136.49 105.611 135.67 99.3756C135.53 97.9306 136.88 97.3856 138.06 97.1206C139.485 96.8406 140.645 96.3306 141.485 96.9006L141.555 96.9706L141.56 96.9656Z" fill="#E000C6"/>
<path d="M142.266 96.3013C142.604 96.6606 142.748 97.1099 142.824 97.4712C142.863 97.6563 142.891 97.8526 142.913 98.0493L142.962 98.6313L142.963 98.6421C143.306 104.292 144.686 109.966 147.029 115.438C147.582 116.707 148.248 117.838 148.94 119.133L149.085 119.406C150.565 122.259 151.18 126.081 151.185 129.625C151.216 130.639 150.855 131.476 150.231 132.093C149.633 132.685 148.846 133.022 148.068 133.195C147.492 133.341 146.842 133.505 146.253 133.61C145.734 133.702 145.087 133.783 144.564 133.666V133.667C144.552 133.665 144.541 133.661 144.529 133.659C144.523 133.657 144.517 133.657 144.511 133.656V133.655C144.125 133.568 143.795 133.371 143.554 133.07C143.319 132.775 143.217 132.444 143.17 132.178C143.084 131.69 143.143 131.113 143.156 130.861L143.158 130.82L143.164 130.779C143.675 127.048 142.145 122.517 139.769 118.66L139.739 118.61L139.714 118.558C136.919 112.519 135.533 105.777 134.708 99.5024L134.706 99.4858L134.705 99.4692C134.597 98.3585 135.094 97.5491 135.789 97.0288C136.425 96.5523 137.223 96.3144 137.847 96.1743L137.873 96.1685C138.203 96.1035 138.519 96.0259 138.849 95.9458C139.168 95.8684 139.509 95.7865 139.839 95.7339C140.297 95.661 140.834 95.6266 141.368 95.7856L141.582 95.5728L142.266 96.3013ZM140.867 97.6665C140.747 97.6148 140.547 97.5858 140.144 97.6499C139.902 97.6885 139.633 97.7515 139.307 97.8306C138.997 97.906 138.639 97.9944 138.262 98.0688C137.711 98.1935 137.247 98.3605 136.951 98.5825C136.712 98.761 136.604 98.9457 136.634 99.2759C137.447 105.448 138.797 111.94 141.456 117.702C143.91 121.707 145.665 126.651 145.092 130.985C145.082 131.182 145.071 131.314 145.066 131.484C145.062 131.611 145.067 131.708 145.075 131.783C145.125 131.785 145.189 131.786 145.27 131.782C145.444 131.772 145.66 131.745 145.914 131.7C146.422 131.609 147.007 131.464 147.59 131.316L147.608 131.311L147.626 131.307C148.181 131.187 148.602 130.975 148.867 130.714C149.106 130.478 149.265 130.158 149.246 129.664L149.245 129.645V129.627C149.24 126.136 148.605 122.548 147.24 120.068L147.234 120.057C146.588 118.847 145.846 117.58 145.251 116.213L145.248 116.208C142.823 110.545 141.385 104.654 141.027 98.769V98.77C140.999 98.3817 140.972 98.0949 140.925 97.8726C140.903 97.7683 140.882 97.7036 140.867 97.6665Z" fill="black"/>
<path d="M28.8601 151.151C39.174 151.151 47.5351 149.521 47.5351 147.511C47.5351 145.5 39.174 143.871 28.8601 143.871C18.5461 143.871 10.1851 145.5 10.1851 147.511C10.1851 149.521 18.5461 151.151 28.8601 151.151Z" fill="#ACADAE"/>
<path d="M77.65 152.116C94.8316 152.116 108.76 149.62 108.76 146.541C108.76 143.462 94.8316 140.966 77.65 140.966C60.4685 140.966 46.54 143.462 46.54 146.541C46.54 149.62 60.4685 152.116 77.65 152.116Z" fill="#ACADAE"/>
<path d="M92.53 28.685C72.505 27.14 54.735 31.435 39.665 42.75C39.665 42.75 41.12 22.38 61.005 18.015C81.57 13.5 92.53 28.685 92.53 28.685Z" fill="#FF70E9"/>
<path d="M60.7969 17.0679C71.3666 14.7473 79.5007 17.492 84.9834 20.8286C87.7183 22.493 89.7919 24.3017 91.1836 25.6977C91.8799 26.3963 92.4067 26.9937 92.7627 27.4194C92.9407 27.6323 93.0766 27.8022 93.1689 27.9214C93.2151 27.981 93.2508 28.0281 93.2754 28.061C93.2876 28.0774 93.2968 28.0907 93.3037 28.1001C93.3072 28.1048 93.3104 28.1089 93.3125 28.1118C93.3133 28.1129 93.3139 28.1139 93.3145 28.1147L93.3154 28.1167C93.3108 28.1208 93.2512 28.1647 92.5303 28.6851L93.3164 28.1177L94.54 29.813L92.4551 29.6518C72.6234 28.1218 55.0975 32.3758 40.2471 43.5259L38.5459 44.8032L38.6973 42.6811L39.665 42.7495C38.7252 42.6824 38.698 42.6808 38.6973 42.6802V42.6782C38.6974 42.677 38.6981 42.6752 38.6982 42.6733C38.6985 42.6697 38.6987 42.6647 38.6992 42.6587C38.7002 42.6465 38.7012 42.6295 38.7031 42.6079C38.7069 42.5642 38.7134 42.5009 38.7217 42.4204C38.7383 42.2595 38.7647 42.0274 38.8057 41.7329C38.8876 41.1437 39.0266 40.3032 39.2568 39.2847C39.7168 37.25 40.5438 34.4881 42.0127 31.5815C44.9588 25.7521 50.5025 19.3277 60.7969 17.0679ZM83.9756 22.4858C78.837 19.3587 71.2081 16.768 61.2129 18.9624C51.623 21.0675 46.4968 27.01 43.7441 32.4565C42.3639 35.1877 41.5837 37.7914 41.1494 39.7124C41.0772 40.0318 41.0151 40.3325 40.9609 40.6108C55.2471 30.5698 71.8264 26.5465 90.293 27.5659C90.1431 27.4079 89.9823 27.2412 89.8096 27.0679C88.5037 25.7579 86.5511 24.0533 83.9756 22.4858Z" fill="black"/>
<path d="M39.665 42.7498C39.665 42.7498 76.2 11.0398 94.47 13.6498C106.35 15.3498 92.53 28.6848 92.53 28.6848C72.6 26.6348 55.065 31.5648 39.665 42.7498Z" fill="#002560"/>
<path d="M77.8124 16.206C83.848 13.5823 89.7643 11.9976 94.6073 12.6894L95.1825 12.7842C97.9812 13.3052 99.6368 14.5643 100.119 16.4795C100.591 18.3534 99.8058 20.4695 98.8027 22.2754C97.7704 24.1336 96.3644 25.9122 95.2353 27.2109C94.6675 27.8639 94.1627 28.4037 93.7988 28.7812C93.6167 28.9701 93.4695 29.1195 93.3671 29.2217C93.316 29.2726 93.2756 29.3117 93.248 29.3388C93.2342 29.3524 93.2233 29.3628 93.2157 29.3701C93.212 29.3737 93.2091 29.3768 93.207 29.3789C93.206 29.3799 93.2056 29.3812 93.205 29.3818L93.204 29.3828L92.5302 28.6845L93.203 29.3828C92.9974 29.5811 92.7148 29.6786 92.4306 29.6494C72.7395 27.624 55.4426 32.4892 40.2353 43.5342C39.815 43.8394 39.2283 43.7601 38.9052 43.3535C38.5821 42.9469 38.6371 42.358 39.0292 42.0176L39.665 42.75C39.0291 42.0174 39.0298 42.0169 39.0302 42.0166L39.0312 42.0156C39.0324 42.0145 39.0347 42.0128 39.037 42.0107C39.0417 42.0067 39.0486 42.0008 39.0575 41.9931C39.0757 41.9775 39.1024 41.9541 39.1376 41.9238C39.2085 41.8629 39.3138 41.7721 39.4511 41.6552C39.7255 41.4216 40.1296 41.0805 40.6493 40.6474C41.6895 39.7809 43.195 38.5469 45.0575 37.0752C48.7816 34.1325 53.9416 30.2335 59.6786 26.414C65.4113 22.5975 71.7445 18.8438 77.8124 16.206ZM94.3329 14.6103C90.041 13.9972 84.539 15.3975 78.5859 17.9853C72.6651 20.5591 66.4386 24.2436 60.7538 28.0283C57.4891 30.2018 54.4121 32.4048 51.6825 34.4385C63.9484 28.5847 77.4149 26.2328 92.1669 27.6738C92.2352 27.6044 92.3152 27.5258 92.4023 27.4355C92.7476 27.0772 93.2294 26.5619 93.7714 25.9385C94.8623 24.6838 96.1696 23.022 97.1073 21.334C98.0741 19.5937 98.5162 18.0575 98.2382 16.9531C98.0026 16.0176 97.1248 15.0099 94.3329 14.6103Z" fill="black"/>
<path d="M115.38 80.7706C124.004 80.7706 130.995 72.2259 130.995 61.6856C130.995 51.1452 124.004 42.6006 115.38 42.6006C106.756 42.6006 99.7646 51.1452 99.7646 61.6856C99.7646 72.2259 106.756 80.7706 115.38 80.7706Z" fill="white"/>
<path d="M130.024 61.6855C130.024 51.49 123.295 43.5705 115.38 43.5703C107.465 43.5703 100.734 51.4899 100.734 61.6855C100.734 71.8813 107.465 79.8008 115.38 79.8008C123.295 79.8006 130.024 71.8812 130.024 61.6855ZM131.965 61.6855C131.965 72.5705 124.712 81.7401 115.38 81.7402C106.047 81.7402 98.7949 72.5705 98.7949 61.6855C98.7949 50.8006 106.047 41.6309 115.38 41.6309C124.712 41.631 131.965 50.8007 131.965 61.6855Z" fill="black"/>
<path d="M115.945 57.1353L109.485 54.1503C110.795 48.9553 114.755 45.1753 119.435 45.1753C125.185 45.1753 129.845 50.8703 129.845 57.9003C129.845 64.9303 125.185 70.6253 119.435 70.6253C114.14 70.6253 109.775 65.7903 109.12 59.5353L115.95 57.1353H115.945Z" fill="black"/>
<path d="M87.9197 80.7706C96.5436 80.7706 103.535 72.2259 103.535 61.6856C103.535 51.1452 96.5436 42.6006 87.9197 42.6006C79.2958 42.6006 72.3047 51.1452 72.3047 61.6856C72.3047 72.2259 79.2958 80.7706 87.9197 80.7706Z" fill="white"/>
<path d="M102.564 61.6855C102.564 51.49 95.8351 43.5705 87.9199 43.5703C80.0046 43.5703 73.2744 51.4899 73.2744 61.6855C73.2744 71.8813 80.0046 79.8008 87.9199 79.8008C95.8351 79.8006 102.564 71.8812 102.564 61.6855ZM104.505 61.6855C104.505 72.5705 97.2524 81.7401 87.9199 81.7402C78.5874 81.7402 71.335 72.5705 71.335 61.6855C71.335 50.8006 78.5874 41.6309 87.9199 41.6309C97.2524 41.631 104.505 50.8007 104.505 61.6855Z" fill="black"/>
<path d="M88.4803 57.1353L82.0203 54.1503C83.3303 48.9553 87.2903 45.1753 91.9703 45.1753C97.7203 45.1753 102.38 50.8703 102.38 57.9003C102.38 64.9253 97.7203 70.6253 91.9703 70.6253C86.6753 70.6253 82.3103 65.7903 81.6553 59.5353L88.4853 57.1353H88.4803Z" fill="black"/>
<path d="M73.9414 37.6815L86.9178 35.6146C88.5731 35.3509 89.7015 33.7964 89.438 32.1425C89.1746 30.4885 87.6191 29.3614 85.9638 29.6251L72.9874 31.692C71.3321 31.9556 70.2037 33.5102 70.4672 35.1641C70.7306 36.8181 72.2861 37.9451 73.9414 37.6815Z" fill="#FF70E9"/>
<path d="M71.4251 35.0119C71.6043 36.1359 72.6623 36.9033 73.7892 36.7238L86.7653 34.657C87.8922 34.4775 88.6595 33.4194 88.4806 32.2953C88.3015 31.1712 87.2435 30.4039 86.1164 30.5834L73.1404 32.6502C72.0134 32.8297 71.246 33.8877 71.4251 35.0119ZM69.5098 35.317C69.1619 33.1332 70.6515 31.0817 72.8351 30.7339L85.8112 28.6671C87.9948 28.3193 90.0481 29.8065 90.3959 31.9902C90.7436 34.1739 89.2539 36.2245 87.0704 36.5723L74.0943 38.6392C71.9108 38.9869 69.8577 37.5006 69.5098 35.317Z" fill="black"/>
<path d="M102.043 35.473L115.058 37.2767C116.719 37.5068 118.251 36.3485 118.481 34.6896C118.711 33.0306 117.551 31.4992 115.891 31.2692L102.875 29.4654C101.215 29.2353 99.6825 30.3936 99.4526 32.0526C99.2227 33.7115 100.382 35.2429 102.043 35.473Z" fill="#FF70E9"/>
<path d="M100.413 32.1859C100.257 33.3134 101.046 34.3558 102.176 34.5124L115.191 36.3161C116.322 36.4728 117.364 35.6841 117.52 34.5567C117.677 33.4291 116.888 32.3868 115.758 32.2302L102.742 30.4265C101.612 30.2698 100.57 31.0584 100.413 32.1859ZM98.4922 31.9197C98.7958 29.7294 100.818 28.2009 103.009 28.5044L116.024 30.3081C118.214 30.6117 119.745 32.6326 119.441 34.8229C119.138 37.0131 117.115 38.5407 114.925 38.2372L101.91 36.4335C99.7197 36.13 98.1889 34.1099 98.4922 31.9197Z" fill="black"/>
<path d="M138.985 16.0753C137.6 19.1053 133.385 25.2603 129.915 26.1453C128.11 26.1453 130.99 19.9953 131.435 15.5003C131.75 13.7703 131.14 11.3453 132.915 10.3653C134.06 9.69535 139.47 9.93035 140.05 11.6003C140.375 12.7403 139.505 14.6403 139.04 15.9503L138.995 16.0653L138.985 16.0753Z" fill="#85E200"/>
<path d="M134.365 9.07323C135.106 9.02284 135.968 9.0432 136.808 9.14159C137.64 9.2392 138.501 9.41904 139.217 9.70995C139.837 9.96188 140.577 10.3893 140.906 11.1299L140.966 11.2822L140.982 11.334C141.229 12.1998 141.007 13.2047 140.77 13.9912C140.528 14.796 140.16 15.6949 139.954 16.2744C139.951 16.2841 139.947 16.2941 139.943 16.3037L139.898 16.4189C139.879 16.4681 139.854 16.5144 139.827 16.5596C139.085 18.1568 137.661 20.4795 135.982 22.5293C135.126 23.5748 134.187 24.5715 133.22 25.3721C132.263 26.1638 131.219 26.8133 130.154 27.0849C130.076 27.1049 129.996 27.1152 129.915 27.1152C129.662 27.1152 129.39 27.0605 129.136 26.9101C128.88 26.7587 128.702 26.5457 128.585 26.3242C128.371 25.9184 128.346 25.4511 128.359 25.0791C128.387 24.3089 128.621 23.2992 128.893 22.2627C129.462 20.0878 130.257 17.5518 130.47 15.4053L130.48 15.3262C130.544 14.9742 130.565 14.5658 130.58 14.0762C130.594 13.6117 130.604 13.0644 130.664 12.541C130.785 11.4911 131.142 10.2494 132.425 9.52929V9.52831C132.429 9.52601 132.434 9.52472 132.437 9.52245C132.441 9.52075 132.443 9.51829 132.446 9.51659V9.51757C132.717 9.3637 133.036 9.26933 133.327 9.208C133.641 9.14193 133.995 9.09841 134.365 9.07323ZM134.497 11.0088C134.19 11.0297 133.929 11.0637 133.727 11.1064C133.626 11.1277 133.546 11.1501 133.487 11.1699C133.434 11.188 133.409 11.2 133.405 11.2021C133.398 11.2062 133.391 11.2109 133.384 11.2148C132.91 11.4766 132.687 11.9286 132.591 12.7627C132.542 13.1841 132.534 13.6285 132.519 14.1357C132.504 14.601 132.483 15.1232 132.397 15.6201C132.161 17.9632 131.298 20.7371 130.77 22.7539C130.521 23.7038 130.354 24.4511 130.309 24.9726C130.822 24.7369 131.386 24.3704 131.982 23.8769C132.825 23.1799 133.677 22.2824 134.481 21.2998C136.095 19.3288 137.448 17.1027 138.103 15.6719C138.108 15.6589 138.116 15.6465 138.122 15.6338L138.137 15.5967C138.394 14.8767 138.687 14.1798 138.912 13.4326C139.135 12.6932 139.188 12.1902 139.125 11.9072C139.094 11.8625 138.955 11.6974 138.486 11.5068C137.989 11.305 137.316 11.1545 136.581 11.0683C135.853 10.983 135.111 10.967 134.497 11.0088Z" fill="black"/>
<path d="M11.19 58.7005C13.895 60.6455 20.6 63.9105 24.055 62.9655C25.625 62.0705 20.08 58.1555 17.47 54.4655C16.34 53.1205 15.67 50.7105 13.645 50.7355C12.32 50.7205 7.73 53.6005 8.055 55.3405C8.335 56.4905 10.035 57.7155 11.085 58.6205L11.185 58.7005H11.19Z" fill="#85E200"/>
<path d="M13.6548 49.7666C15.1271 49.7574 16.0521 50.661 16.6763 51.5137C16.9874 51.9386 17.2663 52.4095 17.5083 52.8057C17.6998 53.119 17.871 53.3913 18.0415 53.623L18.2124 53.8418L18.2623 53.9053C19.5085 55.6672 21.4531 57.4782 23.024 59.0859C23.7726 59.8522 24.4766 60.6137 24.8814 61.2695C25.0768 61.5862 25.2844 62.0047 25.2994 62.4629C25.3075 62.7131 25.2582 62.9863 25.1109 63.2441C24.9645 63.5004 24.7553 63.6834 24.5357 63.8086C24.4651 63.8489 24.3895 63.8799 24.3111 63.9014C23.251 64.1913 22.0223 64.142 20.7994 63.9268C19.5628 63.7091 18.2537 63.3074 16.9927 62.8223C14.4778 61.8546 12.0505 60.5143 10.6236 59.4883V59.4873C10.6092 59.477 10.5926 59.4691 10.5787 59.458L10.479 59.3779C10.4698 59.3706 10.4606 59.3632 10.4517 59.3555C9.98625 58.9543 9.22182 58.3554 8.61186 57.7744C8.01727 57.2081 7.32585 56.4446 7.11284 55.5703C7.10869 55.5533 7.10434 55.5358 7.10112 55.5186C6.93868 54.6485 7.40118 53.8454 7.84331 53.2842C8.32197 52.6767 8.98106 52.0955 9.65678 51.5986C10.3382 51.0976 11.0771 50.6526 11.7457 50.3301C12.0797 50.1689 12.4089 50.0316 12.7144 49.9336C12.9981 49.8426 13.3219 49.7678 13.6333 49.7676V49.7656C13.6382 49.7656 13.6431 49.7666 13.648 49.7666C13.6506 49.7666 13.6532 49.7656 13.6558 49.7656L13.6548 49.7666ZM13.5455 51.7178C13.4848 51.7296 13.4054 51.7498 13.3072 51.7813C13.1095 51.8446 12.8657 51.9443 12.5884 52.0781C12.034 52.3457 11.3971 52.7267 10.8062 53.1611C10.2096 53.5998 9.69868 54.064 9.36675 54.4854C9.05325 54.8833 9.01411 55.0945 9.00932 55.1484C9.09319 55.4241 9.38926 55.8354 9.95073 56.3701C10.5144 56.907 11.1147 57.3683 11.691 57.8633L11.7417 57.9043C11.7464 57.9075 11.7518 57.9098 11.7564 57.9131C13.0345 58.8321 15.3125 60.0969 17.69 61.0117C18.8751 61.4677 20.0596 61.8261 21.1363 62.0156C21.8981 62.1497 22.5693 62.1904 23.1324 62.1416C22.8348 61.7112 22.3224 61.1437 21.6363 60.4414C20.1824 58.9534 18.0653 56.9741 16.7007 55.0557C16.3772 54.6643 16.0976 54.2176 15.8531 53.8174C15.5885 53.3844 15.3615 53.0025 15.1109 52.6602C14.6144 51.982 14.1969 51.6984 13.6568 51.7051C13.6493 51.7052 13.6418 51.7052 13.6343 51.7051C13.6344 51.7051 13.6067 51.7059 13.5455 51.7178Z" fill="black"/>
<path d="M31.325 145.315C34.455 146.455 41.795 147.775 44.865 145.925C46.13 144.635 39.73 142.375 36.22 139.535C34.765 138.545 33.47 136.41 31.525 136.985C30.245 137.33 26.61 141.35 27.395 142.935C27.98 143.965 29.945 144.68 31.205 145.27L31.32 145.32L31.325 145.315Z" fill="#E7FF00"/>
<path d="M31.2723 136.051C32.687 135.642 33.8215 136.258 34.6541 136.909C35.0688 137.234 35.465 137.611 35.8055 137.927C36.1646 138.26 36.4695 138.532 36.7655 138.733C36.7876 138.748 36.8091 138.764 36.8299 138.781C38.5056 140.137 40.8678 141.35 42.8162 142.471C43.7449 143.005 44.629 143.546 45.1971 144.067C45.4716 144.319 45.7854 144.666 45.9246 145.103C46.0006 145.341 46.028 145.617 45.9569 145.905C45.8861 146.191 45.7344 146.424 45.5575 146.604C45.5001 146.663 45.4352 146.714 45.3651 146.756C44.4233 147.323 43.2277 147.611 41.992 147.736C40.7426 147.863 39.3736 147.832 38.0282 147.708C35.4044 147.465 32.7653 146.854 31.1053 146.265C31.0472 146.251 30.9894 146.234 30.9334 146.21L30.8182 146.16C30.81 146.157 30.8019 146.152 30.7938 146.148C30.2373 145.888 29.3364 145.518 28.5936 145.126C27.8673 144.742 26.9957 144.196 26.5516 143.414C26.5426 143.398 26.5333 143.383 26.5252 143.366C26.1324 142.573 26.3596 141.675 26.6327 141.015C26.9283 140.3 27.4043 139.561 27.9198 138.899C28.4394 138.232 29.0299 137.603 29.5858 137.111C29.8637 136.865 30.1443 136.644 30.4119 136.467C30.6601 136.302 30.9503 136.141 31.2498 136.057V136.056C31.2524 136.055 31.2551 136.054 31.2577 136.054C31.2626 136.052 31.2673 136.05 31.2723 136.049V136.051ZM33.4588 138.437C32.7982 137.921 32.3198 137.762 31.7996 137.916C31.7923 137.918 31.7846 137.92 31.7772 137.922C31.7749 137.923 31.7489 137.931 31.6961 137.958C31.6409 137.986 31.5693 138.027 31.4832 138.084C31.3103 138.199 31.1023 138.36 30.8719 138.564C30.4109 138.973 29.9018 139.513 29.451 140.092C28.9959 140.676 28.6307 141.261 28.4256 141.757C28.232 142.225 28.2516 142.438 28.2616 142.491C28.4196 142.735 28.8164 143.049 29.4998 143.41C30.1967 143.778 30.9048 144.059 31.6043 144.386L31.6229 144.394C31.6341 144.397 31.6459 144.4 31.6571 144.404C33.1354 144.943 35.6705 145.541 38.2069 145.775C39.4713 145.892 40.7088 145.916 41.7967 145.806C42.567 145.727 43.2246 145.583 43.7537 145.383C43.3503 145.049 42.7016 144.642 41.8494 144.152C40.0417 143.113 37.4591 141.78 35.6258 140.301C35.2132 140.013 34.8262 139.665 34.4862 139.35C34.1141 139.005 33.7926 138.699 33.4588 138.437Z" fill="black"/>
<path d="M105.09 11.1555L109.35 17.1255L116.17 12.8605L112.76 6.89551L105.09 11.1555Z" fill="#E7FF00"/>
<path d="M112.377 6.00391C112.825 5.811 113.355 5.98194 113.602 6.41406L117.012 12.3789C117.27 12.8309 117.126 13.4064 116.685 13.6826L109.865 17.9482C109.43 18.2201 108.859 18.1059 108.561 17.6885L104.3 11.7188C104.14 11.494 104.083 11.2116 104.144 10.9424C104.205 10.6729 104.378 10.4418 104.619 10.3076L112.289 6.04785L112.377 6.00391ZM106.511 11.4756L109.609 15.8184L114.866 12.5312L112.393 8.20801L106.511 11.4756Z" fill="black"/>
<path d="M9.54492 33.9504L13.8049 39.9204L20.6249 35.6554L17.2149 29.6904L9.54492 33.9504Z" fill="#E000C6"/>
<path d="M16.8319 28.7988C17.2796 28.6059 17.8093 28.7769 18.0565 29.209L21.4666 35.1738C21.725 35.6258 21.5807 36.2013 21.1395 36.4775L14.3192 40.7432C13.8844 41.015 13.3133 40.9008 13.0154 40.4834L8.7547 34.5137C8.59451 34.289 8.53782 34.0065 8.59845 33.7373C8.65929 33.4678 8.83252 33.2367 9.07404 33.1025L16.744 28.8428L16.8319 28.7988ZM10.9656 34.2705L14.0633 38.6133L19.3201 35.3262L16.8475 31.0029L10.9656 34.2705Z" fill="black"/>
<path d="M15.04 143.87L19.24 148.235L25.96 145.12L22.6 140.755L15.04 143.87Z" fill="#85E200"/>
<path d="M22.2306 139.859C22.6354 139.692 23.1022 139.817 23.3693 140.164L26.7287 144.529C26.9084 144.762 26.9726 145.065 26.9025 145.351C26.8323 145.637 26.6357 145.876 26.3683 146L19.6486 149.116C19.2731 149.29 18.8281 149.206 18.5412 148.908L14.341 144.542C14.1187 144.311 14.0252 143.985 14.091 143.671C14.1569 143.357 14.3743 143.095 14.671 142.973L22.2306 139.859ZM16.7267 144.224L19.4591 147.064L24.4503 144.75L22.2833 141.934L16.7267 144.224Z" fill="black"/>
<path d="M117.7 138.711L121.96 144.681L128.78 140.416L125.37 134.451L117.7 138.711Z" fill="#85E200"/>
<path d="M124.987 133.559C125.435 133.366 125.965 133.537 126.212 133.969L129.622 139.934C129.88 140.386 129.736 140.962 129.295 141.238L122.474 145.503C122.04 145.775 121.469 145.661 121.171 145.244L116.91 139.274C116.75 139.049 116.693 138.767 116.754 138.498C116.815 138.228 116.988 137.997 117.229 137.863L124.899 133.603L124.987 133.559ZM119.121 139.031L122.219 143.374L127.475 140.086L125.003 135.763L119.121 139.031Z" fill="black"/>
<path d="M141.24 26.8657L134.425 30.2757L139.535 37.9507L145.505 35.3907L141.24 26.8657Z" fill="#E000C6"/>
<path d="M140.806 25.9985C141.036 25.8835 141.302 25.8646 141.546 25.9458C141.79 26.0271 141.993 26.202 142.108 26.4321L146.372 34.9565C146.492 35.1954 146.508 35.4733 146.416 35.7241C146.324 35.975 146.133 36.1764 145.887 36.2817L139.917 38.8423C139.487 39.0265 138.987 38.8779 138.728 38.4888L133.617 30.813C133.464 30.5816 133.416 30.2954 133.488 30.0269C133.559 29.7581 133.743 29.5331 133.991 29.4087L140.806 25.9985ZM135.84 30.6509L139.894 36.7407L144.177 34.9038L140.806 28.1665L135.84 30.6509Z" fill="black"/>
<path d="M97.4151 52.8556C98.4865 52.8556 99.3551 51.987 99.3551 50.9156C99.3551 49.8442 98.4865 48.9756 97.4151 48.9756C96.3437 48.9756 95.4751 49.8442 95.4751 50.9156C95.4751 51.987 96.3437 52.8556 97.4151 52.8556Z" fill="white"/>
<path d="M125.135 52.6905C126.207 52.6905 127.075 51.822 127.075 50.7505C127.075 49.6791 126.207 48.8105 125.135 48.8105C124.064 48.8105 123.195 49.6791 123.195 50.7505C123.195 51.822 124.064 52.6905 125.135 52.6905Z" fill="white"/>
<path d="M53.6407 74.7953C49.7807 72.4203 31.2707 62.7303 30.6907 71.7203C30.0157 71.9103 29.3557 72.1453 28.7157 72.4253C27.8557 72.7953 27.8207 74.0203 28.6557 74.4453C28.8257 74.5303 28.9957 74.6103 29.1707 74.6803C28.0907 74.2353 26.9307 76.3503 26.9707 77.2453C27.0057 78.0553 27.5557 78.8353 28.0107 79.4653C29.4807 81.4953 31.6607 83.0803 33.6857 84.5253C38.3657 87.8653 43.3407 90.7603 48.5107 93.2753C49.5307 93.7703 50.5457 94.2903 51.5957 94.7303" fill="#CFFF5E"/>
<path d="M33.8164 67.1175C35.9285 66.759 38.6004 67.2619 41.2207 68.0687C46.5084 69.6967 52.1786 72.7565 54.1494 73.9691C54.6055 74.2498 54.7475 74.8478 54.4668 75.304C54.186 75.76 53.5889 75.9019 53.1328 75.6214C51.2436 74.459 45.7277 71.4864 40.6504 69.9232C38.0885 69.1344 35.7828 68.7518 34.1406 69.0306C33.3404 69.1665 32.7686 69.4477 32.3838 69.847C32.0067 70.2383 31.7203 70.8357 31.6592 71.7825C31.6327 72.1931 31.3492 72.5421 30.9531 72.6536C30.3203 72.8318 29.7026 73.0521 29.1045 73.3138L29.0986 73.3167C29.0661 73.3308 29.052 73.3465 29.043 73.3607C29.0313 73.3788 29.0206 73.4071 29.0195 73.4427C29.0185 73.4785 29.0276 73.5091 29.0391 73.5296C29.0482 73.5459 29.0627 73.5628 29.0947 73.5794C29.2503 73.6571 29.3922 73.724 29.5313 73.7796H29.5303C29.5335 73.7809 29.5368 73.7822 29.54 73.7835C30.0335 73.9869 30.2701 74.5507 30.0693 75.0452C29.8757 75.5221 29.3462 75.7602 28.8643 75.5989C28.8599 75.6013 28.8552 75.6045 28.8496 75.6077C28.7523 75.6637 28.6029 75.7967 28.4385 76.0257C28.2803 76.246 28.1444 76.5051 28.0527 76.7474C28.0074 76.8672 27.9771 76.9738 27.959 77.0599C27.9501 77.1023 27.945 77.1366 27.9424 77.1624C27.9411 77.1751 27.9397 77.1848 27.9395 77.1917V77.2034C27.9483 77.4084 28.0269 77.6605 28.1904 77.9691C28.3535 78.2766 28.5662 78.5787 28.7959 78.8968L29.0596 79.2444C30.4141 80.9644 32.3316 82.3674 34.249 83.7357C38.8801 87.0407 43.8078 89.9086 48.9346 92.4027L50.4629 93.1497C50.7135 93.2705 50.9632 93.3886 51.2139 93.5032L51.9707 93.8353L52.0605 93.8782C52.4923 94.1131 52.6841 94.6417 52.4902 95.1048C52.2962 95.568 51.7847 95.8016 51.3145 95.6585L51.2207 95.6253L50.4141 95.2708C49.6137 94.9048 48.8328 94.5097 48.0869 94.1478H48.0859C42.873 91.6119 37.8508 88.6895 33.1221 85.3148C31.1173 83.8842 28.8025 82.2135 27.2246 80.0345V80.0335C26.9998 79.7222 26.7108 79.3191 26.4766 78.8773C26.2428 78.4361 26.0283 77.8929 26.002 77.2884C25.9836 76.8763 26.0972 76.4339 26.2383 76.0609C26.3866 75.6689 26.6007 75.2593 26.8623 74.8948C26.9865 74.7218 27.1309 74.5452 27.2949 74.3821C26.8047 73.3826 27.1539 72.0447 28.3272 71.5364L28.8418 71.3216C29.1576 71.1964 29.4776 71.0819 29.8008 70.9769C29.9687 69.9816 30.3626 69.1488 30.9863 68.5013C31.7399 67.7191 32.7396 67.3003 33.8164 67.1175Z" fill="black"/>
</svg>
