<svg width="165" height="45" viewBox="0 0 165 45" fill="none" xmlns="http://www.w3.org/2000/svg">
<g clip-path="url(#clip0_2864_59615)">
<path d="M29.7027 0.0369336C30.5998 -0.205881 31.3471 0.752515 30.8937 1.56447L28.3191 6.16994C33.9664 9.44364 37.7786 15.5571 37.7786 22.5475C37.7782 31.7416 31.1914 39.4196 22.4955 41.1099L8.14421 44.9613C7.24762 45.201 6.50353 44.2451 6.95673 43.4338L9.4718 38.9303C3.81686 35.6586 0.00028343 29.5434 0 22.5475C0 13.3579 6.58063 5.68125 15.2708 3.98498C15.304 3.97219 15.3283 3.94906 15.3654 3.93927L29.7027 0.0369336ZM83.4475 4.43673C84.5976 4.43702 85.4485 5.50748 85.1901 6.62873L78.5609 35.3795L83.486 34.1297C88.2342 32.5711 91.6125 31.5763 96.0421 29.5875C96.8003 29.227 99.9315 27.9673 100.146 27.0598L100.261 26.5535C100.448 25.7404 101.17 25.1615 102.004 25.1613H109.637L109.639 25.1596C110.384 25.1599 110.673 26.1299 110.05 26.5394C109.139 26.9903 109.051 28.286 109.907 28.8193C109.915 28.8242 109.922 28.8251 109.931 28.8299C109.931 28.8299 109.941 28.8367 109.945 28.8387C112.663 30.5042 115.368 31.8576 118.193 33.1893C119.233 33.6794 119.559 35.0069 118.855 35.9174C117.518 37.6434 115.687 40.0098 115.662 40.0447V40.0412C111.601 38.2899 108.234 35.8429 104.468 33.91C104.02 33.6803 103.495 33.6625 103.025 33.8432C98.2185 35.6897 91.8047 37.516 86.9118 39.2555C86.7178 39.3241 86.5143 39.3592 86.3076 39.3592H77.2211C77.0642 39.3592 76.9171 39.3411 76.7797 39.3099C76.5995 39.3707 76.4072 39.4066 76.2088 39.4066H72.6043C71.4537 39.4066 70.6028 38.3345 70.8616 37.2129L78.0986 5.82365C78.2861 5.01169 79.0086 4.43673 79.8412 4.43673H83.4475ZM152.782 24.0398C153.932 24.0404 154.783 25.1139 154.524 26.2353L153.15 32.1961C152.962 33.0082 152.238 33.583 151.405 33.583H129.801C129.527 33.5831 129.287 33.7737 129.225 34.0418C129.139 34.4127 129.421 34.7684 129.801 34.7695H163.208C164.854 34.7701 165.625 36.8071 164.394 37.9002L163.255 38.9092C162.928 39.1989 162.506 39.3609 162.07 39.3609H122.482C121.332 39.3605 120.482 38.2885 120.741 37.1672L122.151 31.0482C122.338 30.236 123.062 29.6596 123.894 29.6596H145.522C145.788 29.6596 146.02 29.4769 146.081 29.2166C146.164 28.8564 145.891 28.5135 145.522 28.5135H124.99C123.84 28.5129 122.989 27.4386 123.249 26.3162L123.456 25.4285C123.643 24.6172 124.366 24.0416 125.198 24.0416L152.782 24.0398ZM74.7743 4.53869C75.925 4.53869 76.776 5.61075 76.517 6.73244L69.3816 37.6857C69.1941 38.4977 68.4716 39.0726 67.6389 39.0726H61.8574L61.8522 39.0709L65.1081 24.9486C65.253 24.3184 64.774 23.7169 64.1291 23.7164C64.0986 23.7164 64.0666 23.716 64.0362 23.7199L64.0555 23.6549C62.3045 23.1854 61.2056 21.2339 61.7471 19.2076C62.2612 17.2885 64.0164 16.1656 65.6878 16.4514C65.8447 16.5543 66.033 16.6148 66.2378 16.6148C66.7054 16.6146 67.1119 16.2926 67.2169 15.8361L69.5007 5.92384C69.6883 5.11204 70.4092 4.53713 71.2417 4.53693L74.7743 4.53869ZM18.8876 7.57443C10.643 7.57472 3.93374 14.2912 3.93374 22.5475C3.93416 30.8034 10.6432 37.5184 18.8876 37.5187C27.1331 37.5187 33.8409 30.8036 33.8414 22.5475C33.8414 14.291 27.1324 7.57443 18.8876 7.57443ZM65.5635 5.22599C66.6038 5.34723 67.3379 6.35467 67.096 7.40743L65.3883 14.8201C63.039 14.7023 60.8615 16.3691 60.2111 18.798C59.5283 21.3508 60.727 24.0181 63.0362 24.9855L60.7348 34.9629C60.5474 35.7752 59.8249 36.3515 58.9921 36.3516H46.5656C45.4149 36.3516 44.5639 35.2795 44.8229 34.1578L50.8233 8.13517C50.9106 7.75526 50.7874 7.35602 50.4993 7.09279C49.7715 6.42783 50.2413 5.21369 51.2262 5.21369H65.3533L65.5635 5.22599ZM24.6078 13.8305C28.4715 13.8305 31.6149 17.5867 31.6153 22.2047C31.6153 26.823 28.4717 30.5807 24.6078 30.5807C22.3077 30.5805 20.269 29.2417 18.9909 27.1881C17.7157 29.2742 15.6591 30.6368 13.3372 30.6369C9.47329 30.6369 6.32971 26.8783 6.32971 22.2609C6.32994 17.6438 9.47343 13.8867 13.3372 13.8867C15.6375 13.8868 17.676 15.2256 18.9541 17.2793C20.2293 15.1942 22.286 13.8306 24.6078 13.8305ZM57.8064 11.8793C57.3845 11.8793 57.0188 12.1701 56.9236 12.5807L53.2368 28.5486C53.1054 29.1163 53.537 29.6595 54.1196 29.6596C54.5414 29.6596 54.9071 29.367 55.0023 28.9564L58.6873 12.9902C58.8188 12.4226 58.3889 11.8795 57.8064 11.8793ZM13.3355 15.6779C11.7282 15.6782 10.29 16.602 9.33168 18.0492C9.8865 17.702 10.5138 17.5009 11.1812 17.5008C13.0136 17.5008 14.5634 18.984 15.0764 21.0182L12.5491 22.1854V22.1906L15.22 23.1293C14.9608 25.5796 13.2557 27.4746 11.1812 27.4746C10.741 27.4745 10.3172 27.3848 9.92017 27.2268C10.8362 28.2314 12.0291 28.8455 13.3355 28.8457C15.408 28.8455 17.1965 27.3093 18.0381 25.0945C17.7597 24.1921 17.6002 23.1982 17.6002 22.2064C17.6002 21.2144 17.7538 20.2649 18.0206 19.3799C17.172 17.1918 15.3924 15.6779 13.3355 15.6779ZM24.6078 15.6234C22.9501 15.6236 21.4727 16.6073 20.5164 18.1336C21.103 17.7329 21.779 17.5008 22.499 17.5008C24.3314 17.5008 25.8812 18.984 26.3942 21.0182L23.8652 22.1854V22.1906L26.5379 23.1293C26.2787 25.5797 24.5736 27.4746 22.499 27.4746C22.0606 27.4746 21.6395 27.3874 21.2432 27.2303C22.1525 28.2016 23.3258 28.7911 24.6078 28.7912C27.4859 28.7912 29.8271 25.8367 29.8271 22.2064C29.8271 18.5762 27.4849 15.6234 24.6078 15.6234ZM98.079 10.4748L97.7252 10.5188C95.9704 10.8081 94.4777 12.0131 94.0454 13.8955C93.5466 16.0695 94.87 17.337 96.9686 17.3373C99.0677 17.3373 100.982 16.0699 101.482 13.8955C101.883 12.1482 101.101 10.9851 99.6956 10.5961L101.529 3.94455C106.98 4.30723 110.574 8.0673 109.23 13.8955C107.815 20.032 101.98 23.8729 96.0438 23.8729H94.8704C88.9348 23.8729 84.8758 20.0321 86.2901 13.8955C87.7045 7.75887 93.5395 3.91668 99.4662 3.91642H99.8883L98.079 10.4748ZM119.856 4.42619C121.019 4.42667 121.873 5.52145 121.59 6.65158L117.623 22.5176C117.424 23.3141 116.708 23.8729 115.888 23.8729H111.817C110.654 23.8729 109.8 22.778 110.083 21.6475L114.05 5.78146C114.25 4.98512 114.966 4.42619 115.786 4.42619H119.856ZM140.587 14.4879C142.901 14.4774 144.65 16.1569 144.659 18.0809L146.265 18.0633L155.987 18.0615C157.137 18.0617 157.99 19.1348 157.73 20.257L157.46 21.4242C157.273 22.2354 156.549 22.811 155.717 22.8111H123.916C123.912 22.811 123.909 22.8068 123.909 22.8023L124.687 19.4484C124.875 18.6371 125.598 18.0633 126.43 18.0633H130.681H134.933V18.0668H136.507C136.499 16.1427 138.272 14.4987 140.587 14.4879ZM135.283 4.36818C135.599 4.43885 135.819 4.74149 135.781 5.06955L135.754 5.21896C135.712 5.59492 136.005 5.93398 136.394 5.93439H142.443L141.525 10.452H135.064C134.751 10.4524 134.479 10.6684 134.407 10.974C134.309 11.3971 134.63 11.8032 135.064 11.8037H149.666C149.98 11.8037 150.254 11.588 150.325 11.2817C150.423 10.8583 150.101 10.452 149.666 10.452H143.145L144.065 5.93439H150.759C151.205 5.93439 151.596 5.64771 151.733 5.22951L151.78 5.05724C151.917 4.64043 152.307 4.35256 152.752 4.35236H157.332C158.481 4.35267 159.332 5.42303 159.073 6.54435L157.087 15.1629C156.899 15.9752 156.178 16.5516 155.344 16.5516H146.167C146.116 16.5516 146.067 16.5569 146.019 16.5656C145.3 14.391 143.08 12.88 140.578 12.8918C138.082 12.9037 135.877 14.3937 135.169 16.5516H127.752C126.601 16.5516 125.75 15.4795 126.009 14.3578L127.994 5.73927C128.181 4.9271 128.905 4.35236 129.738 4.35236H135.141L135.283 4.36818Z" fill="#1263FF"/>
</g>
<defs>
<clipPath id="clip0_2864_59615">
<rect width="165" height="45" fill="white"/>
</clipPath>
</defs>
</svg>
